<?xml version="1.0" encoding="UTF-8" standalone="no"?>
<!DOCTYPE svg PUBLIC "-//W3C//DTD SVG 1.1//EN"
 "http://www.w3.org/Graphics/SVG/1.1/DTD/svg11.dtd">
<!-- Generated by graphviz version 14.1.5 (20260411.2331)
 -->
<!-- Title: lightprobe_demo_flow Pages: 1 -->
<svg width="1417pt" height="347pt"
 viewBox="0.00 0.00 1417.00 347.00" xmlns="http://www.w3.org/2000/svg" xmlns:xlink="http://www.w3.org/1999/xlink">
<g id="graph0" class="graph" transform="scale(1 1) rotate(0) translate(25.2 321.34)">
<title>lightprobe_demo_flow</title>
<polygon fill="white" stroke="none" points="-25.2,25.2 -25.2,-321.34 1392.22,-321.34 1392.22,25.2 -25.2,25.2"/>
<!-- cli -->
<g id="node1" class="node">
<title>cli</title>
<path fill="#dbeafe" stroke="#1d4ed8" stroke-width="1.4" d="M80.28,-133.13C80.28,-133.13 12,-133.13 12,-133.13 6,-133.13 0,-127.13 0,-121.13 0,-121.13 0,-109.13 0,-109.13 0,-103.14 6,-97.14 12,-97.14 12,-97.14 80.28,-97.14 80.28,-97.14 86.28,-97.14 92.28,-103.14 92.28,-109.14 92.28,-109.14 92.28,-121.13 92.28,-121.13 92.28,-127.13 86.28,-133.13 80.28,-133.13"/>
<text xml:space="preserve" text-anchor="middle" x="46.14" y="-110.86" font-family="Arial" font-size="12.00">lightprobe CLI</text>
</g>
<!-- attach -->
<g id="node2" class="node">
<title>attach</title>
<path fill="#dbeafe" stroke="#1d4ed8" stroke-width="1.4" d="M203.81,-220.13C203.81,-220.13 154.28,-220.13 154.28,-220.13 148.28,-220.13 142.28,-214.13 142.28,-208.13 142.28,-208.13 142.28,-196.13 142.28,-196.13 142.28,-190.13 148.28,-184.13 154.28,-184.13 154.28,-184.13 203.81,-184.13 203.81,-184.13 209.81,-184.13 215.81,-190.13 215.81,-196.13 215.81,-196.13 215.81,-208.13 215.81,-208.13 215.81,-214.13 209.81,-220.13 203.81,-220.13"/>
<text xml:space="preserve" text-anchor="middle" x="179.05" y="-197.86" font-family="Arial" font-size="12.00">attach &#45;&#45;ret</text>
</g>
<!-- cli&#45;&gt;attach -->
<g id="edge1" class="edge">
<title>cli&#45;&gt;attach</title>
<path fill="none" stroke="#374151" stroke-width="1.2" d="M92.74,-124.14C119.17,-124.14 147.02,-124.14 147.02,-124.14 147.02,-124.14 147.02,-173.83 147.02,-173.83"/>
<polygon fill="#374151" stroke="#374151" stroke-width="1.2" points="144.22,-173.83 147.02,-181.83 149.82,-173.83 144.22,-173.83"/>
</g>
<!-- events -->
<g id="node10" class="node">
<title>events</title>
<path fill="#dbeafe" stroke="#1d4ed8" stroke-width="1.4" d="M1355.02,-173.13C1355.02,-173.13 1297.99,-173.13 1297.99,-173.13 1291.99,-173.13 1285.99,-167.13 1285.99,-161.13 1285.99,-161.13 1285.99,-149.13 1285.99,-149.13 1285.99,-143.13 1291.99,-137.13 1297.99,-137.13 1297.99,-137.13 1355.02,-137.13 1355.02,-137.13 1361.02,-137.13 1367.02,-143.13 1367.02,-149.13 1367.02,-149.13 1367.02,-161.13 1367.02,-161.13 1367.02,-167.13 1361.02,-173.13 1355.02,-173.13"/>
<text xml:space="preserve" text-anchor="middle" x="1326.5" y="-150.86" font-family="Arial" font-size="12.00">events &#45;&#45;csv</text>
</g>
<!-- cli&#45;&gt;events -->
<g id="edge11" class="edge">
<title>cli&#45;&gt;events</title>
<path fill="none" stroke="#374151" stroke-width="1.2" d="M92.83,-115.14C323.01,-115.14 1326.02,-115.14 1326.02,-115.14 1326.02,-115.14 1326.02,-126.72 1326.02,-126.72"/>
<polygon fill="#374151" stroke="#374151" stroke-width="1.2" points="1323.22,-126.72 1326.02,-134.72 1328.82,-126.72 1323.22,-126.72"/>
</g>
<!-- detach -->
<g id="node11" class="node">
<title>detach</title>
<path fill="#dbeafe" stroke="#1d4ed8" stroke-width="1.4" d="M194.05,-50.14C194.05,-50.14 164.05,-50.14 164.05,-50.14 158.05,-50.14 152.05,-44.14 152.05,-38.14 152.05,-38.14 152.05,-26.14 152.05,-26.14 152.05,-20.14 158.05,-14.14 164.05,-14.14 164.05,-14.14 194.05,-14.14 194.05,-14.14 200.05,-14.14 206.05,-20.14 206.05,-26.14 206.05,-26.14 206.05,-38.14 206.05,-38.14 206.05,-44.14 200.05,-50.14 194.05,-50.14"/>
<text xml:space="preserve" text-anchor="middle" x="179.05" y="-27.86" font-family="Arial" font-size="12.00">detach</text>
</g>
<!-- cli&#45;&gt;detach -->
<g id="edge12" class="edge">
<title>cli&#45;&gt;detach</title>
<path fill="none" stroke="#374151" stroke-width="1.2" d="M92.61,-106.14C130.93,-106.14 179.02,-106.14 179.02,-106.14 179.02,-106.14 179.02,-60.62 179.02,-60.62"/>
<polygon fill="#374151" stroke="#374151" stroke-width="1.2" points="181.82,-60.62 179.02,-52.62 176.22,-60.62 181.82,-60.62"/>
</g>
<!-- controller -->
<g id="node3" class="node">
<title>controller</title>
<path fill="#dcfce7" stroke="#15803d" stroke-width="1.4" d="M388.09,-244.39C388.09,-244.39 277.81,-244.39 277.81,-244.39 271.81,-244.39 265.81,-238.39 265.81,-232.39 265.81,-232.39 265.81,-187.88 265.81,-187.88 265.81,-181.88 271.81,-175.88 277.81,-175.88 277.81,-175.88 388.09,-175.88 388.09,-175.88 394.09,-175.88 400.09,-181.88 400.09,-187.88 400.09,-187.88 400.09,-232.39 400.09,-232.39 400.09,-238.39 394.09,-244.39 388.09,-244.39"/>
<text xml:space="preserve" text-anchor="middle" x="332.95" y="-227.23" font-family="Arial" font-size="12.00">controller</text>
<text xml:space="preserve" text-anchor="middle" x="332.95" y="-212.98" font-family="Arial" font-size="12.00">ptrace stop all threads</text>
<text xml:space="preserve" text-anchor="middle" x="332.95" y="-198.73" font-family="Arial" font-size="12.00">resolve symbol</text>
<text xml:space="preserve" text-anchor="middle" x="332.95" y="-184.48" font-family="Arial" font-size="12.00">remote mmap</text>
</g>
<!-- attach&#45;&gt;controller -->
<g id="edge2" class="edge">
<title>attach&#45;&gt;controller</title>
<path fill="none" stroke="#374151" stroke-width="1.2" d="M216.3,-202.13C216.3,-202.13 255.55,-202.13 255.55,-202.13"/>
<polygon fill="#374151" stroke="#374151" stroke-width="1.2" points="255.55,-204.94 263.55,-202.14 255.55,-199.34 255.55,-204.94"/>
</g>
<!-- runtime -->
<g id="node4" class="node">
<title>runtime</title>
<path fill="#dcfce7" stroke="#15803d" stroke-width="1.4" d="M569.37,-237.27C569.37,-237.27 462.09,-237.27 462.09,-237.27 456.09,-237.27 450.09,-231.27 450.09,-225.27 450.09,-225.27 450.09,-195 450.09,-195 450.09,-189 456.09,-183 462.09,-183 462.09,-183 569.37,-183 569.37,-183 575.37,-183 581.37,-189 581.37,-195 581.37,-195 581.37,-225.27 581.37,-225.27 581.37,-231.27 575.37,-237.27 569.37,-237.27"/>
<text xml:space="preserve" text-anchor="middle" x="515.73" y="-220.11" font-family="Arial" font-size="12.00">remote runtime</text>
<text xml:space="preserve" text-anchor="middle" x="515.73" y="-205.86" font-family="Arial" font-size="12.00">config + event buffer</text>
<text xml:space="preserve" text-anchor="middle" x="515.73" y="-191.61" font-family="Arial" font-size="12.00">shadow stack + stubs</text>
</g>
<!-- controller&#45;&gt;runtime -->
<g id="edge3" class="edge">
<title>controller&#45;&gt;runtime</title>
<path fill="none" stroke="#374151" stroke-width="1.2" d="M400.75,-210.13C400.75,-210.13 439.74,-210.13 439.74,-210.13"/>
<polygon fill="#374151" stroke="#374151" stroke-width="1.2" points="439.74,-212.94 447.74,-210.14 439.74,-207.34 439.74,-212.94"/>
</g>
<!-- patch -->
<g id="node5" class="node">
<title>patch</title>
<path fill="#dcfce7" stroke="#15803d" stroke-width="1.4" d="M728.15,-230.14C728.15,-230.14 643.37,-230.14 643.37,-230.14 637.37,-230.14 631.37,-224.14 631.37,-218.14 631.37,-218.14 631.37,-202.12 631.37,-202.12 631.37,-196.12 637.37,-190.12 643.37,-190.12 643.37,-190.12 728.15,-190.12 728.15,-190.12 734.15,-190.12 740.15,-196.12 740.15,-202.12 740.15,-202.12 740.15,-218.14 740.15,-218.14 740.15,-224.14 734.15,-230.14 728.15,-230.14"/>
<text xml:space="preserve" text-anchor="middle" x="685.76" y="-212.98" font-family="Arial" font-size="12.00">patch target entry</text>
<text xml:space="preserve" text-anchor="middle" x="685.76" y="-198.73" font-family="Arial" font-size="12.00">jmp entry_stub</text>
</g>
<!-- runtime&#45;&gt;patch -->
<g id="edge4" class="edge">
<title>runtime&#45;&gt;patch</title>
<path fill="none" stroke="#374151" stroke-width="1.2" d="M581.95,-210.13C581.95,-210.13 620.9,-210.13 620.9,-210.13"/>
<polygon fill="#374151" stroke="#374151" stroke-width="1.2" points="620.9,-212.94 628.9,-210.14 620.9,-207.34 620.9,-212.94"/>
</g>
<!-- target -->
<g id="node6" class="node">
<title>target</title>
<path fill="#dcfce7" stroke="#15803d" stroke-width="1.4" d="M880.93,-230.14C880.93,-230.14 802.15,-230.14 802.15,-230.14 796.15,-230.14 790.15,-224.14 790.15,-218.14 790.15,-218.14 790.15,-202.12 790.15,-202.12 790.15,-196.12 796.15,-190.12 802.15,-190.12 802.15,-190.12 880.93,-190.12 880.93,-190.12 886.93,-190.12 892.93,-196.12 892.93,-202.12 892.93,-202.12 892.93,-218.14 892.93,-218.14 892.93,-224.14 886.93,-230.14 880.93,-230.14"/>
<text xml:space="preserve" text-anchor="middle" x="841.54" y="-212.98" font-family="Arial" font-size="12.00">target process</text>
<text xml:space="preserve" text-anchor="middle" x="841.54" y="-198.73" font-family="Arial" font-size="12.00">libc function call</text>
</g>
<!-- patch&#45;&gt;target -->
<g id="edge5" class="edge">
<title>patch&#45;&gt;target</title>
<path fill="none" stroke="#374151" stroke-width="1.2" d="M740.68,-210.13C740.68,-210.13 779.65,-210.13 779.65,-210.13"/>
<polygon fill="#374151" stroke="#374151" stroke-width="1.2" points="779.65,-212.94 787.65,-210.14 779.65,-207.34 779.65,-212.94"/>
</g>
<!-- entry -->
<g id="node7" class="node">
<title>entry</title>
<path fill="#fef3c7" stroke="#d97706" stroke-width="1.4" d="M1083.96,-296.14C1083.96,-296.14 954.93,-296.14 954.93,-296.14 948.93,-296.14 942.93,-290.14 942.93,-284.14 942.93,-284.14 942.93,-268.12 942.93,-268.12 942.93,-262.12 948.93,-256.12 954.93,-256.12 954.93,-256.12 1083.96,-256.12 1083.96,-256.12 1089.96,-256.12 1095.96,-262.12 1095.96,-268.12 1095.96,-268.12 1095.96,-284.14 1095.96,-284.14 1095.96,-290.14 1089.96,-296.14 1083.96,-296.14"/>
<text xml:space="preserve" text-anchor="middle" x="1019.44" y="-278.99" font-family="Arial" font-size="12.00">entry event</text>
<text xml:space="preserve" text-anchor="middle" x="1019.44" y="-264.74" font-family="Arial" font-size="12.00">args + pid/tid + timestamp</text>
</g>
<!-- target&#45;&gt;entry -->
<g id="edge6" class="edge">
<title>target&#45;&gt;entry</title>
<path fill="none" stroke="#374151" stroke-width="1.2" d="M893.39,-223.14C921.69,-223.14 951.02,-223.14 951.02,-223.14 951.02,-223.14 951.02,-245.68 951.02,-245.68"/>
<polygon fill="#374151" stroke="#374151" stroke-width="1.2" points="948.22,-245.68 951.02,-253.68 953.82,-245.68 948.22,-245.68"/>
</g>
<!-- ret -->
<g id="node8" class="node">
<title>ret</title>
<path fill="#fef3c7" stroke="#d97706" stroke-width="1.4" d="M1068.59,-216.14C1068.59,-216.14 970.3,-216.14 970.3,-216.14 964.3,-216.14 958.3,-210.14 958.3,-204.14 958.3,-204.14 958.3,-188.12 958.3,-188.12 958.3,-182.12 964.3,-176.12 970.3,-176.12 970.3,-176.12 1068.59,-176.12 1068.59,-176.12 1074.59,-176.12 1080.59,-182.12 1080.59,-188.12 1080.59,-188.12 1080.59,-204.14 1080.59,-204.14 1080.59,-210.14 1074.59,-216.14 1068.59,-216.14"/>
<text xml:space="preserve" text-anchor="middle" x="1019.44" y="-198.98" font-family="Arial" font-size="12.00">return event</text>
<text xml:space="preserve" text-anchor="middle" x="1019.44" y="-184.73" font-family="Arial" font-size="12.00">retval + duration_ns</text>
</g>
<!-- target&#45;&gt;ret -->
<g id="edge7" class="edge">
<title>target&#45;&gt;ret</title>
<path fill="none" stroke="#374151" stroke-width="1.2" d="M893.48,-203.13C893.48,-203.13 947.88,-203.13 947.88,-203.13"/>
<polygon fill="#374151" stroke="#374151" stroke-width="1.2" points="947.88,-205.94 955.88,-203.14 947.88,-200.34 947.88,-205.94"/>
</g>
<!-- buffer -->
<g id="node9" class="node">
<title>buffer</title>
<path fill="#fef3c7" stroke="#d97706" stroke-width="1.4" d="M1223.99,-216.14C1223.99,-216.14 1157.96,-216.14 1157.96,-216.14 1151.96,-216.14 1145.96,-210.14 1145.96,-204.14 1145.96,-204.14 1145.96,-188.12 1145.96,-188.12 1145.96,-182.12 1151.96,-176.12 1157.96,-176.12 1157.96,-176.12 1223.99,-176.12 1223.99,-176.12 1229.99,-176.12 1235.99,-182.12 1235.99,-188.12 1235.99,-188.12 1235.99,-204.14 1235.99,-204.14 1235.99,-210.14 1229.99,-216.14 1223.99,-216.14"/>
<text xml:space="preserve" text-anchor="middle" x="1190.97" y="-198.98" font-family="Arial" font-size="12.00">ring buffer</text>
<text xml:space="preserve" text-anchor="middle" x="1190.97" y="-184.73" font-family="Arial" font-size="12.00">lock xadd slot</text>
</g>
<!-- entry&#45;&gt;buffer -->
<g id="edge8" class="edge">
<title>entry&#45;&gt;buffer</title>
<path fill="none" stroke="#374151" stroke-width="1.2" d="M1088.02,-255.71C1088.02,-234.01 1088.02,-202.81 1088.02,-202.81 1088.02,-202.81 1135.7,-202.81 1135.7,-202.81"/>
<polygon fill="#374151" stroke="#374151" stroke-width="1.2" points="1135.7,-205.61 1143.7,-202.81 1135.7,-200.01 1135.7,-205.61"/>
</g>
<!-- ret&#45;&gt;buffer -->
<g id="edge9" class="edge">
<title>ret&#45;&gt;buffer</title>
<path fill="none" stroke="#374151" stroke-width="1.2" d="M1080.89,-189.47C1080.89,-189.47 1135.48,-189.47 1135.48,-189.47"/>
<polygon fill="#374151" stroke="#374151" stroke-width="1.2" points="1135.48,-192.27 1143.48,-189.47 1135.48,-186.67 1135.48,-192.27"/>
</g>
<!-- buffer&#45;&gt;events -->
<g id="edge10" class="edge">
<title>buffer&#45;&gt;events</title>
<path fill="none" stroke="#374151" stroke-width="1.2" d="M1236.32,-196.13C1275.55,-196.13 1326.02,-196.13 1326.02,-196.13 1326.02,-196.13 1326.02,-183.53 1326.02,-183.53"/>
<polygon fill="#374151" stroke="#374151" stroke-width="1.2" points="1328.82,-183.53 1326.02,-175.53 1323.22,-183.53 1328.82,-183.53"/>
</g>
<!-- restore -->
<g id="node12" class="node">
<title>restore</title>
<path fill="#f3f4f6" stroke="#4b5563" stroke-width="1.4" d="M383.97,-54.27C383.97,-54.27 281.94,-54.27 281.94,-54.27 275.94,-54.27 269.94,-48.27 269.94,-42.27 269.94,-42.27 269.94,-12 269.94,-12 269.94,-6 275.94,0 281.94,0 281.94,0 383.97,0 383.97,0 389.97,0 395.97,-6 395.97,-12 395.97,-12 395.97,-42.27 395.97,-42.27 395.97,-48.27 389.97,-54.27 383.97,-54.27"/>
<text xml:space="preserve" text-anchor="middle" x="332.95" y="-37.11" font-family="Arial" font-size="12.00">restore original code</text>
<text xml:space="preserve" text-anchor="middle" x="332.95" y="-22.86" font-family="Arial" font-size="12.00">remote munmap</text>
<text xml:space="preserve" text-anchor="middle" x="332.95" y="-8.61" font-family="Arial" font-size="12.00">clear local state</text>
</g>
<!-- detach&#45;&gt;restore -->
<g id="edge13" class="edge">
<title>detach&#45;&gt;restore</title>
<path fill="none" stroke="#374151" stroke-width="1.2" d="M206.56,-32.14C206.56,-32.14 259.45,-32.14 259.45,-32.14"/>
<polygon fill="#374151" stroke="#374151" stroke-width="1.2" points="259.45,-34.94 267.45,-32.14 259.45,-29.34 259.45,-34.94"/>
</g>
</g>
</svg>
